<svg xmlns:rdf="http://www.w3.org/1999/02/22-rdf-syntax-ns#" xmlns="http://www.w3.org/2000/svg" height="369.5" width="598.72" version="1.1" xmlns:cc="http://creativecommons.org/ns#" xmlns:dc="http://purl.org/dc/elements/1.1/">
 <metadata>
  <rdf:RDF>
   <cc:Work rdf:about="">
    <dc:format>image/svg+xml</dc:format>
    <dc:type rdf:resource="http://purl.org/dc/dcmitype/StillImage"/>
    <dc:title/>
   </cc:Work>
  </rdf:RDF>
 </metadata>
 <rect rx="7.632" ry="30.714" height="61.427" width="131.23" stroke="#616161" y="53.967" x="465.99" stroke-width="3px" fill="#8ab5eb"/>
 <text font-family="BryantPro-Bold" font-size="16px" stroke="#000000" y="53.967201" x="465.98599" stroke-width="0px" fill="#000000">
  <tspan style="text-anchor:middle;text-align:center;" fill="#000000" font-size="16px" stroke="#000000" y="92.680748" x="531.60248" font-family="&apos;\&apos;Helvetica&apos;" text-align="center">Staged</tspan>
 </text>
 <rect rx="9.1538" ry="30.714" height="61.427" width="112.21" stroke="#616161" y="53.967" x="317.5" stroke-width="3px" fill="#f5ffb1"/>
 <text font-family="BryantPro-Bold" font-size="16px" stroke="#000000" y="53.967201" x="317.5" stroke-width="0px" fill="#000000">
  <tspan style="text-anchor:middle;text-align:center;" fill="#000000" font-size="16px" stroke="#000000" y="92.680748" x="373.603" font-family="&apos;\&apos;Helvetica&apos;" text-align="center">Modified</tspan>
 </text>
 <rect rx="8.5399" ry="30.714" height="61.427" width="119" stroke="#616161" y="53.967" x="157.6" stroke-width="3px" fill="#c5e0be"/>
 <text font-family="BryantPro-Bold" font-size="16px" stroke="#000000" y="53.967201" x="157.603" stroke-width="0px" fill="#000000">
  <tspan style="text-anchor:middle;text-align:center;" fill="#000000" font-size="16px" stroke="#000000" y="92.680748" x="217.103" font-family="&apos;\&apos;Helvetica&apos;" text-align="center">Unmodified</tspan>
 </text>
 <path style="marker-start:none;marker-end:none;" d="m216.6,130.16,0,237.84" stroke="#868686" stroke-width="3px" fill="none"/>
 <path style="marker-start:none;marker-end:none;" d="m373.1,128.39,0,239.61" stroke="#868686" stroke-width="3px" fill="none"/>
 <path style="marker-start:none;marker-end:none;" d="m531.1,128.39,0,237.84" stroke="#868686" stroke-width="3px" fill="none"/>
 <path d="m531.1,348.93-268.58,0.00007,0.00001,19.819-45.921-37.746,45.921-37.746,0,19.819,268.58-0.00007z" fill="#ff817f" stroke="#b00600"/>
 <text font-family="Helvetica" font-size="12px" stroke="#000000" y="324.29401" x="348.603" stroke-width="0px" fill="#000000">
  <tspan style="text-anchor:middle;text-align:center;" fill="#000000" font-size="14px" stroke="#000000" y="339.79401" x="373.103" font-family="&apos;\&apos;Helvetica&apos;" text-align="center">Commit</tspan>
 </text>
 <text font-family="Helvetica-Bold" font-size="24px" stroke="#000000" y="0" x="167.767" stroke-width="0px" fill="#000000">
  <tspan style="text-anchor:middle;text-align:center;" font-family="&apos;\&apos;Helvetica&apos;" fill="#000000" font-size="24px" stroke="#000000" y="26.5" x="283.267" font-weight="bold" text-align="center">File Status Lifecycle</tspan>
 </text>
 <path d="m216.6,158.07,110.58,0,0-19.819,45.921,37.746-45.921,37.746,0-19.819-110.58,0z" fill="#ff817f" stroke="#b00600"/>
 <path d="m373.1,216.07,112.08,0,0-19.819,45.921,37.746-45.921,37.746,0-19.819-112.08,0z" fill="#ff817f" stroke="#b00600"/>
 <text font-family="Helvetica" font-size="12px" stroke="#000000" y="167.16299" x="250.267" stroke-width="0px" fill="#000000">
  <tspan style="text-anchor:middle;text-align:center;" fill="#000000" font-size="14px" stroke="#000000" y="182.66299" x="285.267" font-family="&apos;\&apos;Helvetica&apos;" text-align="center">Edit the file</tspan>
 </text>
 <text font-family="Helvetica" font-size="12px" stroke="#000000" y="226" x="403.733" stroke-width="0px" fill="#000000">
  <tspan style="text-anchor:middle;text-align:center;" fill="#000000" font-size="14px" stroke="#000000" y="241.5" x="444.733" font-family="&apos;\&apos;Helvetica&apos;" text-align="center">Stage the file</tspan>
 </text>
 <rect rx="9.1538" ry="30.714" height="61.427" width="112.21" stroke="#616161" y="53.967" x="1.5" stroke-width="3px" fill="#e0a09b"/>
 <text font-family="BryantPro-Bold" font-size="16px" stroke="#000000" y="53.967201" x="1.5" stroke-width="0px" fill="#000000">
  <tspan style="text-anchor:middle;text-align:center;" fill="#000000" font-size="16px" stroke="#000000" y="92.680748" x="57.602997" font-family="&apos;\&apos;Helvetica&apos;" text-align="center">Untracked</tspan>
 </text>
 <path style="marker-start:none;marker-end:none;" d="m57.103,130.16,0,237.84" stroke="#868686" stroke-width="3px" fill="none"/>
 <path d="m57.103,189.07,113.58,0,0-19.819,45.921,37.746-45.921,37.746,0-19.819-113.58,0z" fill="#8d8c85" stroke="#363636"/>
 <path d="m216.6,295.93-113.58,0.00003,0.00001,19.819-45.921-37.746,45.921-37.746,0,19.819,113.58-0.00003z" fill="#8d8c85" stroke="#363636"/>
 <text font-family="Helvetica" font-size="12px" stroke="#000000" y="199" x="91.5" stroke-width="0px" fill="#000000">
  <tspan style="text-anchor:middle;text-align:center;" fill="#000000" font-size="14px" stroke="#000000" y="214.5" x="127" font-family="&apos;\&apos;Helvetica&apos;" text-align="center">Add the file</tspan>
 </text>
 <text font-family="Helvetica" font-size="12px" stroke="#000000" y="269" x="99.5" stroke-width="0px" fill="#000000">
  <tspan style="text-anchor:middle;text-align:center;" fill="#000000" font-size="14px" stroke="#000000" y="284.5" x="148.5" font-family="&apos;\&apos;Helvetica&apos;" text-align="center">Remove the file</tspan>
 </text>
</svg>
