<!-- Created with Inkscape (http://www.inkscape.org/) -->
<svg xmlns:rdf="http://www.w3.org/1999/02/22-rdf-syntax-ns#" xmlns="http://www.w3.org/2000/svg" height="351.81" width="707.74" version="1.1" xmlns:cc="http://creativecommons.org/ns#" xmlns:dc="http://purl.org/dc/elements/1.1/">
 <metadata>
  <rdf:RDF>
   <cc:Work rdf:about="">
    <dc:format>image/svg+xml</dc:format>
    <dc:type rdf:resource="http://purl.org/dc/dcmitype/StillImage"/>
    <dc:title/>
   </cc:Work>
  </rdf:RDF>
 </metadata>
 <defs>
  <marker id="Arrow1Lend" refY="0" refX="0" orient="auto">
   <path style="marker-start:none;" d="m-10,0,0-2,10,2-10,2z" fill-rule="evenodd" stroke="#000" stroke-width="1px"/>
  </marker>
 </defs>
 <g transform="translate(-12.776634,-93.167081)">
  <path fill="#5f8bbf" d="m411.45,234.32,0,70.219,77.25,111.91,41.219,0,90.312,0,0,28.531,63.625-63.656-63.625-63.625,0,28.531-90.312,0-41.219,0-77.25-111.91z"/>
  <path fill="#5f8bbf" d="m102.48,122.04,0,70.25,77.25,111.91,41.25,0,435.88,0,0,28.531,63.656-63.656-63.656-63.625,0,28.5-435.88,0-41.25,0-77.25-111.91z"/>
  <path fill="#5f8bbf" d="m499.61,93.167,0,28.531-355.62,0-41.25,0,0,70.219,41.25,0,355.62,0,0,28.531,63.625-63.625-63.625-63.656z"/>
  <rect rx="8.0854" ry="18" height="36" width="48.158" stroke="#616161" y="138.82" x="94.33" stroke-width="3px" fill="#d3f5d6"/>
  <text font-family="Helvetica" font-size="12px" stroke="#000000" y="138.8158" x="94.33036" stroke-width="0px" fill="#000000">
   <tspan style="text-anchor:middle;text-align:center;" font-size="12px" stroke="#000000" y="162.8158" x="118.4091" font-family="&apos;LucidaGrande" fill="#000000">C1</tspan>
  </text>
  <rect rx="8.0854" ry="18" height="36" width="48.158" stroke="#616161" y="251.08" x="171.33" stroke-width="3px" fill="#d3f5d6"/>
  <text font-family="Helvetica" font-size="12px" stroke="#000000" y="251.07581" x="171.33035" stroke-width="0px" fill="#000000">
   <tspan style="text-anchor:middle;text-align:center;" font-size="12px" stroke="#000000" y="275.07581" x="195.40909" font-family="&apos;LucidaGrande" fill="#000000">C2</tspan>
  </text>
  <path style="marker-start:none;marker-end:url(#Arrow1Lend);" fill="none" d="m182.21,249.84-50.61-73.786" stroke="#000"/>
  <path style="marker-start:none;marker-end:url(#Arrow1Lend);" fill="none" d="m246.83,269.08-25.843,0" stroke="#000"/>
  <rect rx="8.0854" ry="18" height="36" width="48.158" stroke="#616161" y="251.08" x="248.33" stroke-width="3px" fill="#d3f5d6"/>
  <text font-family="Helvetica" font-size="12px" stroke="#000000" y="251.07581" x="248.33035" stroke-width="0px" fill="#000000">
   <tspan style="text-anchor:middle;text-align:center;" font-size="12px" stroke="#000000" y="275.07581" x="272.40912" font-family="&apos;LucidaGrande" fill="#000000">C3</tspan>
  </text>
  <rect rx="8.0854" ry="18" height="36" width="48.158" stroke="#616161" y="251.08" x="325.65" stroke-width="3px" fill="#d3f5d6"/>
  <text font-family="Helvetica" font-size="12px" stroke="#000000" y="251.07581" x="325.64536" stroke-width="0px" fill="#000000">
   <tspan style="text-anchor:middle;text-align:center;" font-size="12px" stroke="#000000" y="275.07581" x="349.72412" font-family="&apos;LucidaGrande" fill="#000000">C4</tspan>
  </text>
  <path style="marker-start:none;marker-end:url(#Arrow1Lend);" fill="none" d="m324.15,269.08-26.158,0" stroke="#000"/>
  <path style="marker-start:none;marker-end:url(#Arrow1Lend);" fill="none" d="m401.78,269.08-26.472,0" stroke="#000"/>
  <rect rx="8.0854" ry="18" height="36" width="48.158" stroke="#616161" y="251.08" x="403.28" stroke-width="3px" fill="#d3f5d6"/>
  <text font-family="Helvetica" font-size="12px" stroke="#000000" y="251.07579" x="403.27536" stroke-width="0px" fill="#000000">
   <tspan style="text-anchor:middle;text-align:center;" font-size="12px" stroke="#000000" y="275.07581" x="427.3541" font-family="&apos;LucidaGrande" fill="#000000">C5</tspan>
  </text>
  <path style="marker-start:none;marker-end:url(#Arrow1Lend);" fill="none" d="m491.16,362.1-50.61-73.786" stroke="#000"/>
  <rect rx="8.0854" ry="18" height="36" width="48.158" stroke="#616161" y="363.34" x="480.28" stroke-width="3px" fill="#d3f5d6"/>
  <text font-family="Helvetica" font-size="12px" stroke="#000000" y="363.33582" x="480.27539" stroke-width="0px" fill="#000000">
   <tspan style="text-anchor:middle;text-align:center;" font-size="12px" stroke="#000000" y="387.33582" x="504.35413" font-family="&apos;LucidaGrande" fill="#000000">C6</tspan>
  </text>
  <rect rx="8.0854" ry="18" height="36" width="48.158" stroke="#616161" y="363.34" x="557.28" stroke-width="3px" fill="#d3f5d6"/>
  <text font-family="Helvetica" font-size="12px" stroke="#000000" y="363.33582" x="557.27539" stroke-width="0px" fill="#000000">
   <tspan style="text-anchor:middle;text-align:center;" font-size="12px" stroke="#000000" y="387.33582" x="581.35413" font-family="&apos;LucidaGrande" fill="#000000">C7</tspan>
  </text>
  <path style="marker-start:none;marker-end:url(#Arrow1Lend);" fill="none" d="m555.78,381.34-25.843,0" stroke="#000"/>
  <text font-family="Helvetica-Bold" font-size="12px" stroke="#000000" y="148.09129" x="-3.2839327" stroke-width="0px" fill="#000000">
   <tspan style="text-anchor:middle;text-align:center;" font-weight="bold" font-size="14px" stroke="#000000" y="161.62363" x="39.368431" font-family="&apos;Helvetica" fill="#000000">master</tspan>
  </text>
  <text font-family="Helvetica-Bold" font-size="12px" stroke="#000000" y="259.40579" x="0.80395889" stroke-width="0px" fill="#000000">
   <tspan style="text-anchor:middle;text-align:center;" font-weight="bold" font-size="14px" stroke="#000000" y="272.93811" x="43.456322" font-family="&apos;Helvetica" fill="#000000">develop</tspan>
  </text>
  <text font-family="Helvetica-Bold" font-size="12px" stroke="#000000" y="371.6658" x="-10.318108" stroke-width="0px" fill="#000000">
   <tspan style="text-anchor:middle;text-align:center;" font-weight="bold" font-size="14px" stroke="#000000" y="385.19812" x="32.334251" font-family="&apos;Helvetica" fill="#000000">topic</tspan>
  </text>
 </g>
</svg>
