<!-- Created with Inkscape (http://www.inkscape.org/) -->
<svg xmlns:rdf="http://www.w3.org/1999/02/22-rdf-syntax-ns#" xmlns="http://www.w3.org/2000/svg" height="422.98" width="411.13" version="1.1" xmlns:cc="http://creativecommons.org/ns#" xmlns:xlink="http://www.w3.org/1999/xlink" xmlns:dc="http://purl.org/dc/elements/1.1/">
 <metadata>
  <rdf:RDF>
   <cc:Work rdf:about="">
    <dc:format>image/svg+xml</dc:format>
    <dc:type rdf:resource="http://purl.org/dc/dcmitype/StillImage"/>
    <dc:title/>
   </cc:Work>
  </rdf:RDF>
 </metadata>
 <defs>
  <marker id="Arrow1Lend" refY="0" refX="0" orient="auto">
   <path style="marker-start:none;" d="M0,0,5-5-12.5,0,5,5,0,0z" fill-rule="evenodd" transform="matrix(-0.8,0,0,-0.8,-10,0)" stroke="#000" stroke-width="1pt"/>
  </marker>
 </defs>
 <g transform="translate(-0.20768003,-1.21505)">
  <g transform="translate(24,-12)">
   <path fill="#527bc6" d="m269,13.394,47.069,0c2.0981,0,3.7871,2.2983,3.7871,5.1531v25.765c0,2.8548-1.6891,5.1531-3.7871,5.1531h-47.069c-2.0981,0-3.7871-2.2983-3.7871-5.1531v-25.765c0-2.8548,1.6891-5.1531,3.7871-5.1531z"/>
   <text style="text-anchor:middle;text-align:center;" font-weight="normal" xml:space="preserve" font-size="16px" font-style="normal" y="36.433243" x="292.8671" font-family="Bitstream Vera Sans" fill="#ffffff"><tspan style="text-anchor:middle;text-align:center;" font-weight="bold" font-size="14px" font-style="normal" font-stretch="normal" font-variant="normal" y="36.433243" x="292.8671" font-family="Liberation Sans">John</tspan></text>
   <g transform="translate(0,-118.35562)">
    <path fill="#527bc6" d="m269,518.48,47.069,0c2.0981,0,3.7871,2.2983,3.7871,5.1531v25.765c0,2.8548-1.6891,5.1531-3.7871,5.1531h-47.069c-2.0981,0-3.7871-2.2983-3.7871-5.1531v-25.765c0-2.8548,1.6891-5.1531,3.7871-5.1531z"/>
    <text style="text-anchor:middle;text-align:center;" font-weight="normal" xml:space="preserve" font-size="16px" font-style="normal" y="541.52258" x="292.8671" font-family="Bitstream Vera Sans" fill="#ffffff"><tspan style="text-anchor:middle;text-align:center;" font-weight="bold" font-size="14px" font-style="normal" font-stretch="normal" font-variant="normal" y="541.52258" x="292.8671" font-family="Liberation Sans">John</tspan></text>
   </g>
   <g transform="translate(-139.39303,-27.361417)">
    <path fill="#527bc6" d="m296.64,40.755,47.069,0c2.0981,0,3.7871,2.2983,3.7871,5.1531v25.765c0,2.8548-1.6891,5.1531-3.7871,5.1531h-47.069c-2.0981,0-3.7871-2.2983-3.7871-5.1531v-25.765c0-2.8548,1.6891-5.1531,3.7871-5.1531z"/>
    <text style="text-anchor:middle;text-align:center;" font-weight="normal" xml:space="preserve" font-size="16px" font-style="normal" y="63.794659" x="320.31528" font-family="Bitstream Vera Sans" fill="#ffffff"><tspan style="text-anchor:middle;text-align:center;" font-weight="bold" font-size="14px" font-style="normal" font-stretch="normal" font-variant="normal" y="63.794659" x="320.31528" font-family="Liberation Sans">Server</tspan></text>
   </g>
   <g transform="translate(-139.39303,-145.71704)">
    <path fill="#527bc6" d="m296.64,545.84,47.069,0c2.0981,0,3.7871,2.2983,3.7871,5.1531v25.765c0,2.8548-1.6891,5.1531-3.7871,5.1531h-47.069c-2.0981,0-3.7871-2.2983-3.7871-5.1531v-25.765c0-2.8548,1.6891-5.1531,3.7871-5.1531z"/>
    <text style="text-anchor:middle;text-align:center;" font-weight="normal" xml:space="preserve" font-size="16px" font-style="normal" y="568.88397" x="320.31525" font-family="Bitstream Vera Sans" fill="#ffffff"><tspan style="text-anchor:middle;text-align:center;" font-weight="bold" font-size="14px" font-style="normal" font-stretch="normal" font-variant="normal" y="568.88397" x="320.31525" font-family="Liberation Sans">Server</tspan></text>
   </g>
   <path fill="#527bc6" d="m37.964,13.215,62.143,0c2.77,0,5,2.2983,5,5.1531v25.765c0,2.8548-2.23,5.1531-5,5.1531h-62.143c-2.77,0-5-2.2983-5-5.1531v-25.765c0-2.8548,2.23-5.1531,5-5.1531z"/>
   <text style="text-anchor:middle;text-align:center;" font-weight="normal" xml:space="preserve" font-size="16px" font-style="normal" y="35.167759" x="68.888565" font-family="Bitstream Vera Sans" fill="#ffffff"><tspan style="text-anchor:middle;text-align:center;" font-weight="bold" font-size="14px" font-style="normal" font-stretch="normal" font-variant="normal" y="35.167759" x="68.888565" font-family="Liberation Sans">Jessica</tspan></text>
   <g transform="translate(0,-118.17705)">
    <path fill="#527bc6" d="m37.964,518.3,62.143,0c2.77,0,5,2.2983,5,5.1531v25.765c0,2.8548-2.23,5.1531-5,5.1531h-62.143c-2.77,0-5-2.2983-5-5.1531v-25.765c0-2.8548,2.23-5.1531,5-5.1531z"/>
    <text style="text-anchor:middle;text-align:center;" font-weight="normal" xml:space="preserve" font-size="16px" font-style="normal" y="540.25708" x="68.88858" font-family="Bitstream Vera Sans" fill="#ffffff"><tspan style="text-anchor:middle;text-align:center;" font-weight="bold" font-size="14px" font-style="normal" font-stretch="normal" font-variant="normal" y="540.25708" x="68.88858" font-family="Liberation Sans">Jessica</tspan></text>
   </g>
   <g transform="translate(151.69199,-132.04261)">
    <g stroke-linejoin="round" transform="translate(1.1543825,-103.65768)" stroke-dashoffset="0" stroke="#000" stroke-miterlimit="4" stroke-dasharray="none" fill="#FFF">
     <path d="m233.99,495.75,0,20.36-81.965,0,0-28.265,73.474,0.00001" stroke-width="0.99999994"/>
     <path d="m224.79,487.84,9.196,8.1558-9.7113,0.0329,0.51529-8.1887z" stroke-linecap="square" stroke-width="1"/>
    </g>
    <text style="text-anchor:middle;text-align:center;" font-weight="normal" xml:space="preserve" font-size="10px" font-style="normal" font-stretch="normal" font-variant="normal" y="401.16306" x="194.22528" font-family="Liberation Sans" fill="#000000"><tspan y="401.16306" x="194.22528" style="text-anchor:middle;text-align:center;" font-size="11px">git merge</tspan></text>
   </g>
   <g transform="translate(152.84637,-369.55419)">
    <path stroke-linejoin="round" d="m233.99,495.75,0,20.36-81.965,0,0-28.265,73.474,0.00001" stroke-dashoffset="0" stroke="#000" stroke-miterlimit="4" stroke-dasharray="none" stroke-width="0.99999994" fill="#FFF"/>
    <path stroke-linejoin="round" d="m224.79,487.84,9.196,8.1558-9.7113,0.0329,0.51529-8.1887z" stroke-dashoffset="0" stroke="#000" stroke-linecap="square" stroke-miterlimit="4" stroke-dasharray="none" stroke-width="1" fill="#FFF"/>
    <text style="text-anchor:middle;text-align:center;" font-weight="normal" xml:space="preserve" font-size="10px" font-style="normal" font-stretch="normal" font-variant="normal" y="504.82077" x="192.7916" font-family="Liberation Sans" fill="#000000"><tspan y="504.82077" x="194.31699" style="text-anchor:middle;text-align:center;" font-size="11px">git commit </tspan></text>
   </g>
   <text id="text3934-2-7-8" style="text-anchor:middle;text-align:center;" font-weight="normal" xml:space="preserve" font-size="10px" font-style="normal" font-stretch="normal" font-variant="normal" y="102.21805" x="236.05838" font-family="Liberation Sans" fill="#000000"><tspan style="text-anchor:middle;text-align:center;" font-size="11px" y="102.21805" x="236.05838" fill="#000000">git clone (url)</tspan></text>
   <path stroke-linejoin="miter" style="marker-end:url(#Arrow1Lend);" d="m180.79,105.97,111.75,0" stroke="#000" stroke-linecap="butt" stroke-width="1px" fill="none"/>
   <g transform="translate(0,8.034564)">
    <path stroke-linejoin="miter" style="marker-end:url(#Arrow1Lend);" d="m180.79,157.97-111.75-0.17857" stroke="#000" stroke-linecap="butt" stroke-width="1px" fill="none"/>
    <use xlink:href="#text3934-2-7-8" transform="translate(-110.87573,52.089271)" height="1052.3622" width="744.09448" y="0" x="0"/>
   </g>
   <g transform="translate(-175.31604,-309.67583)">
    <path stroke-linejoin="round" d="m233.99,495.75,0,20.36-81.965,0,0-28.265,73.474,0.00001" stroke-dashoffset="0" stroke="#000" stroke-miterlimit="4" stroke-dasharray="none" stroke-width="0.99999994" fill="#FFF"/>
    <path stroke-linejoin="round" d="m224.79,487.84,9.196,8.1558-9.7113,0.0329,0.51529-8.1887z" stroke-dashoffset="0" stroke="#000" stroke-linecap="square" stroke-miterlimit="4" stroke-dasharray="none" stroke-width="1" fill="#FFF"/>
    <text style="text-anchor:middle;text-align:center;" font-weight="normal" xml:space="preserve" font-size="10px" font-style="normal" font-stretch="normal" font-variant="normal" y="504.82077" x="192.7916" font-family="Liberation Sans" fill="#000000"><tspan y="504.82077" x="194.31699" style="text-anchor:middle;text-align:center;" font-size="11px">git commit </tspan></text>
   </g>
   <g transform="translate(0,9.1669136)">
    <path stroke-linejoin="miter" style="marker-end:url(#Arrow1Lend);marker-start:none;" d="m69.036,215.8,111.75,0.17857" stroke="#000" stroke-linecap="butt" stroke-width="1px" fill="none"/>
    <text style="text-anchor:middle;text-align:center;" font-weight="normal" xml:space="preserve" font-size="10px" font-style="normal" font-stretch="normal" font-variant="normal" y="213.05333" x="121.92641" font-family="Liberation Sans" fill="#000000"><tspan style="text-anchor:middle;text-align:center;" font-size="11px" y="213.05333" x="121.92641" fill="#000000">git push origin</tspan></text>
   </g>
   <g transform="translate(0,15.853899)">
    <path stroke-linejoin="miter" style="marker-end:url(#Arrow1Lend);" d="m180.79,223.97,111.75,0" stroke="#000" stroke-linecap="butt" stroke-width="1px" fill="none"/>
    <text style="text-anchor:middle;text-align:center;" font-weight="normal" xml:space="preserve" font-size="10px" font-style="normal" font-stretch="normal" font-variant="normal" y="221.73532" x="237.68623" font-family="Liberation Sans" fill="#000000"><tspan style="text-anchor:middle;text-align:center;" font-size="11px" y="221.73532" x="237.68623" fill="#000000">git fetch origin</tspan></text>
   </g>
   <g transform="translate(0,-11.183875)">
    <path stroke-linejoin="miter" style="marker-end:url(#Arrow1Lend);" d="m180.79,323.97-111.75-0.17857" stroke="#000" stroke-linecap="butt" stroke-width="1px" fill="none"/>
    <text style="text-anchor:middle;text-align:center;" font-weight="normal" xml:space="preserve" font-size="10px" font-style="normal" font-stretch="normal" font-variant="normal" y="321.31509" x="124.42577" font-family="Liberation Sans" fill="#000000"><tspan style="text-anchor:middle;text-align:center;" font-size="11px" y="321.31509" x="124.42577" fill="#000000">git fetch origin</tspan></text>
   </g>
   <g transform="translate(0,13.686536)">
    <path stroke-linejoin="miter" style="marker-end:url(#Arrow1Lend);" d="m292.54,283.97-111.75,0" stroke="#000" stroke-linecap="butt" stroke-width="1px" fill="none"/>
    <text style="text-anchor:middle;text-align:center;" font-weight="normal" xml:space="preserve" font-size="10px" font-style="normal" font-stretch="normal" font-variant="normal" y="282.50925" x="236.10771" font-family="Liberation Sans" fill="#000000"><tspan style="text-anchor:middle;text-align:center;" font-size="11px" y="282.50925" x="236.10771" fill="#000000">git push origin</tspan></text>
   </g>
   <g transform="translate(-176.47042,-59.236589)">
    <g stroke-linejoin="round" transform="translate(1.1543825,-103.65768)" stroke-dashoffset="0" stroke="#000" stroke-miterlimit="4" stroke-dasharray="none" fill="#FFF">
     <path d="m233.99,495.75,0,20.36-81.965,0,0-28.265,73.474,0.00001" stroke-width="0.99999994"/>
     <path d="m224.79,487.84,9.196,8.1558-9.7113,0.0329,0.51529-8.1887z" stroke-linecap="square" stroke-width="1"/>
    </g>
    <text style="text-anchor:middle;text-align:center;" font-weight="normal" xml:space="preserve" font-size="10px" font-style="normal" font-stretch="normal" font-variant="normal" y="401.16306" x="194.22528" font-family="Liberation Sans" fill="#000000"><tspan y="401.16306" x="194.22528" style="text-anchor:middle;text-align:center;" font-size="11px">git merge</tspan></text>
   </g>
   <g transform="translate(0,-18.051541)">
    <path stroke-linejoin="miter" style="marker-end:url(#Arrow1Lend);marker-start:none;" d="m69.036,389.8,111.75,0.17857" stroke="#000" stroke-linecap="butt" stroke-width="1px" fill="none"/>
    <text style="text-anchor:middle;text-align:center;" font-weight="normal" xml:space="preserve" font-size="10px" font-style="normal" font-stretch="normal" font-variant="normal" y="387.05334" x="121.92641" font-family="Liberation Sans" fill="#000000"><tspan style="text-anchor:middle;text-align:center;" font-size="11px" y="387.05334" x="121.92641" fill="#000000">git push origin</tspan></text>
   </g>
   <g transform="translate(0,-23.364555)">
    <path stroke-linejoin="miter" style="marker-end:url(#Arrow1Lend);" d="m180.79,409.97,111.75,0" stroke="#000" stroke-linecap="butt" stroke-width="1px" fill="none"/>
    <text style="text-anchor:middle;text-align:center;" font-weight="normal" xml:space="preserve" font-size="10px" font-style="normal" font-stretch="normal" font-variant="normal" y="407.73532" x="237.68623" font-family="Liberation Sans" fill="#000000"><tspan style="text-anchor:middle;text-align:center;" font-size="11px" y="407.73532" x="237.68623" fill="#000000">git fetch origin</tspan></text>
   </g>
   <path stroke-linejoin="miter" d="m69.036,49.286,0,350.84" stroke="#000" stroke-linecap="butt" stroke-miterlimit="4" stroke-dasharray="none" stroke-width="1.5" fill="none"/>
   <path stroke-linejoin="miter" d="m180.79,49.465,0,350.66" stroke="#000" stroke-linecap="butt" stroke-miterlimit="4" stroke-dasharray="none" stroke-width="1.5" fill="none"/>
   <path stroke-linejoin="miter" d="m292.54,49.465,0,350.66" stroke="#000" stroke-linecap="butt" stroke-miterlimit="4" stroke-dasharray="none" stroke-width="1.5" fill="none"/>
  </g>
 </g>
</svg>
