<!-- Created with Inkscape (http://www.inkscape.org/) -->
<svg xmlns:rdf="http://www.w3.org/1999/02/22-rdf-syntax-ns#" xmlns="http://www.w3.org/2000/svg" height="541.34" width="477.55" version="1.1" xmlns:cc="http://creativecommons.org/ns#" xmlns:dc="http://purl.org/dc/elements/1.1/">
 <metadata>
  <rdf:RDF>
   <cc:Work rdf:about="">
    <dc:format>image/svg+xml</dc:format>
    <dc:type rdf:resource="http://purl.org/dc/dcmitype/StillImage"/>
    <dc:title/>
   </cc:Work>
  </rdf:RDF>
 </metadata>
 <defs>
  <marker id="TriangleOutL" refY="0" refX="0" orient="auto">
   <path style="marker-start:none;" d="m5.77,0-8.65,5,0-10,8.65,5z" fill-rule="evenodd" transform="scale(0.8,0.8)" stroke="#000" stroke-width="1pt"/>
  </marker>
  <marker id="TriangleOutL-5" refY="0" refX="0" orient="auto">
   <path style="marker-start:none;" d="m5.77,0-8.65,5,0-10,8.65,5z" fill-rule="evenodd" transform="scale(0.8,0.8)" stroke="#000" stroke-width="1pt"/>
  </marker>
  <marker id="TriangleOutL-3" refY="0" refX="0" orient="auto">
   <path style="marker-start:none;" d="m5.77,0-8.65,5,0-10,8.65,5z" fill-rule="evenodd" transform="scale(0.8,0.8)" stroke="#000" stroke-width="1pt"/>
  </marker>
 </defs>
 <g transform="translate(-151.73156,-40.576467)">
  <path fill="#527bc6" d="m162.14,40.576,62.143,0c2.77,0,5,2.2983,5,5.1531v25.765c0,2.8548-2.23,5.1531-5,5.1531h-62.143c-2.77,0-5-2.2983-5-5.1531v-25.765c0-2.8548,2.23-5.1531,5-5.1531z"/>
  <text style="text-anchor:middle;text-align:center;" font-weight="normal" xml:space="preserve" font-size="16px" font-style="normal" y="62.529175" x="193.06731" font-family="Bitstream Vera Sans" fill="#ffffff"><tspan style="text-anchor:middle;text-align:center;" font-weight="bold" font-size="14px" font-style="normal" font-stretch="normal" font-variant="normal" y="62.529175" x="193.06731" font-family="Liberation Sans">Jessica</tspan></text>
  <path fill="#527bc6" d="m237.18,40.755,47.069,0c2.0981,0,3.7871,2.2983,3.7871,5.1531v25.765c0,2.8548-1.6891,5.1531-3.7871,5.1531h-47.069c-2.0981,0-3.7871-2.2983-3.7871-5.1531v-25.765c0-2.8548,1.6891-5.1531,3.7871-5.1531z"/>
  <text style="text-anchor:middle;text-align:center;" font-weight="normal" xml:space="preserve" font-size="16px" font-style="normal" y="63.794659" x="261.04584" font-family="Bitstream Vera Sans" fill="#ffffff"><tspan style="text-anchor:middle;text-align:center;" font-weight="bold" font-size="14px" font-style="normal" font-stretch="normal" font-variant="normal" y="63.794659" x="261.04584" font-family="Liberation Sans">John</tspan></text>
  <path fill="#527bc6" d="m296.64,40.755,47.069,0c2.0981,0,3.7871,2.2983,3.7871,5.1531v25.765c0,2.8548-1.6891,5.1531-3.7871,5.1531h-47.069c-2.0981,0-3.7871-2.2983-3.7871-5.1531v-25.765c0-2.8548,1.6891-5.1531,3.7871-5.1531z"/>
  <text style="text-anchor:middle;text-align:center;" font-weight="normal" xml:space="preserve" font-size="16px" font-style="normal" y="63.794659" x="320.31528" font-family="Bitstream Vera Sans" fill="#ffffff"><tspan style="text-anchor:middle;text-align:center;" font-weight="bold" font-size="14px" font-style="normal" font-stretch="normal" font-variant="normal" y="63.794659" x="320.31528" font-family="Liberation Sans">Josie</tspan></text>
  <rect rx="5" ry="5" height="36" width="130.36" y="40.791" x="352.5" fill="#527bc6"/>
  <text style="text-anchor:middle;text-align:center;" font-weight="normal" xml:space="preserve" font-size="16px" font-style="normal" y="63.794659" x="417.66492" font-family="Bitstream Vera Sans" fill="#ffffff"><tspan style="text-anchor:middle;text-align:center;" font-weight="bold" font-size="14px" font-style="normal" font-stretch="normal" font-variant="normal" y="63.794659" x="417.66492" font-family="Liberation Sans">Server:featureA</tspan></text>
  <rect rx="5" ry="5" height="36" width="142.32" y="40.791" x="486.96" fill="#527bc6"/>
  <text style="text-anchor:middle;text-align:center;" font-weight="normal" xml:space="preserve" font-size="16px" font-style="normal" y="63.794659" x="558.11133" font-family="Bitstream Vera Sans" fill="#ffffff"><tspan style="text-anchor:middle;text-align:center;" font-weight="bold" font-size="14px" font-style="normal" font-stretch="normal" font-variant="normal" y="63.794659" x="558.11133" font-family="Liberation Sans">Server:featureBee</tspan></text>
  <path fill="#527bc6" d="m162.14,545.67,62.143,0c2.77,0,5,2.2983,5,5.1531v25.765c0,2.8548-2.23,5.1531-5,5.1531h-62.143c-2.77,0-5-2.2983-5-5.1531v-25.765c0-2.8548,2.23-5.1531,5-5.1531z"/>
  <text style="text-anchor:middle;text-align:center;" font-weight="normal" xml:space="preserve" font-size="16px" font-style="normal" y="567.61847" x="193.06732" font-family="Bitstream Vera Sans" fill="#ffffff"><tspan style="text-anchor:middle;text-align:center;" font-weight="bold" font-size="14px" font-style="normal" font-stretch="normal" font-variant="normal" y="567.61847" x="193.06732" font-family="Liberation Sans">Jessica</tspan></text>
  <path fill="#527bc6" d="m237.18,545.84,47.069,0c2.0981,0,3.7871,2.2983,3.7871,5.1531v25.765c0,2.8548-1.6891,5.1531-3.7871,5.1531h-47.069c-2.0981,0-3.7871-2.2983-3.7871-5.1531v-25.765c0-2.8548,1.6891-5.1531,3.7871-5.1531z"/>
  <text style="text-anchor:middle;text-align:center;" font-weight="normal" xml:space="preserve" font-size="16px" font-style="normal" y="568.88397" x="261.04584" font-family="Bitstream Vera Sans" fill="#ffffff"><tspan style="text-anchor:middle;text-align:center;" font-weight="bold" font-size="14px" font-style="normal" font-stretch="normal" font-variant="normal" y="568.88397" x="261.04584" font-family="Liberation Sans">John</tspan></text>
  <path fill="#527bc6" d="m296.64,545.84,47.069,0c2.0981,0,3.7871,2.2983,3.7871,5.1531v25.765c0,2.8548-1.6891,5.1531-3.7871,5.1531h-47.069c-2.0981,0-3.7871-2.2983-3.7871-5.1531v-25.765c0-2.8548,1.6891-5.1531,3.7871-5.1531z"/>
  <text style="text-anchor:middle;text-align:center;" font-weight="normal" xml:space="preserve" font-size="16px" font-style="normal" y="568.88397" x="320.31525" font-family="Bitstream Vera Sans" fill="#ffffff"><tspan style="text-anchor:middle;text-align:center;" font-weight="bold" font-size="14px" font-style="normal" font-stretch="normal" font-variant="normal" y="568.88397" x="320.31525" font-family="Liberation Sans">Josie</tspan></text>
  <g transform="translate(-6.1e-7,505.08928)">
   <rect rx="5" ry="5" height="36" width="130.36" y="40.791" x="352.5" fill="#527bc6"/>
   <text style="text-anchor:middle;text-align:center;" font-weight="normal" xml:space="preserve" font-size="16px" font-style="normal" y="63.794659" x="417.66492" font-family="Bitstream Vera Sans" fill="#ffffff"><tspan style="text-anchor:middle;text-align:center;" font-weight="bold" font-size="14px" font-style="normal" font-stretch="normal" font-variant="normal" y="63.794659" x="417.66492" font-family="Liberation Sans">Server:featureA</tspan></text>
  </g>
  <g transform="translate(-6.1e-7,505.08928)">
   <rect rx="5" ry="5" height="36" width="142.32" y="40.791" x="486.96" fill="#527bc6"/>
   <text style="text-anchor:middle;text-align:center;" font-weight="normal" xml:space="preserve" font-size="16px" font-style="normal" y="63.794659" x="558.11133" font-family="Bitstream Vera Sans" fill="#ffffff"><tspan style="text-anchor:middle;text-align:center;" font-weight="bold" font-size="14px" font-style="normal" font-stretch="normal" font-variant="normal" y="63.794659" x="558.11133" font-family="Liberation Sans">Server:featureBee</tspan></text>
  </g>
  <path stroke-linejoin="miter" d="m260.71,76.826,0,469.02" stroke="#000" stroke-linecap="butt" stroke-miterlimit="4" stroke-dasharray="none" stroke-width="1.5" fill="none"/>
  <path stroke-linejoin="miter" d="m320.18,76.826,0,469.02" stroke="#000" stroke-linecap="butt" stroke-miterlimit="4" stroke-dasharray="none" stroke-width="1.5" fill="none"/>
  <path stroke-linejoin="miter" d="m417.68,76.791,0,469.09" stroke="#000" stroke-linecap="butt" stroke-miterlimit="4" stroke-dasharray="none" stroke-width="1.5" fill="none"/>
  <path stroke-linejoin="miter" d="m558.13,76.791-0.00001,469.09" stroke="#000" stroke-linecap="butt" stroke-miterlimit="4" stroke-dasharray="none" stroke-width="1.5" fill="none"/>
  <path stroke-linejoin="miter" d="m193.21,76.648,0,469.02" stroke="#000" stroke-linecap="butt" stroke-miterlimit="4" stroke-dasharray="none" stroke-width="1.5" fill="none"/>
  <g transform="translate(-1.9989057,0)">
   <g stroke-linejoin="round" transform="translate(2.2067457,-36.832686)" stroke-dashoffset="0" stroke="#000" stroke-miterlimit="4" stroke-dasharray="none" fill="#FFF">
    <path d="m233.99,495.75,0,20.36-81.965,0,0-28.265,73.474,0.00001" stroke-width="0.99999994"/>
    <path d="m224.79,487.84,9.196,8.1558-9.7113,0.0329,0.51529-8.1887z" stroke-linecap="square" stroke-width="1"/>
   </g>
   <text style="text-anchor:middle;text-align:center;" font-weight="normal" xml:space="preserve" font-size="10px" font-style="normal" font-stretch="normal" font-variant="normal" y="467.98807" x="194.99834" font-family="Liberation Sans" fill="#000000"><tspan y="467.98807" x="194.99834" style="text-anchor:middle;text-align:center;" font-size="11px">git merge on A</tspan></text>
  </g>
  <g transform="translate(0.20783999,0)">
   <path stroke-linejoin="round" d="m233.99,495.75,0,20.36-81.965,0,0-28.265,73.474,0.00001" stroke-dashoffset="0" stroke="#000" stroke-miterlimit="4" stroke-dasharray="none" stroke-width="0.99999994" fill="#FFF"/>
   <path stroke-linejoin="round" d="m224.79,487.84,9.196,8.1558-9.7113,0.0329,0.51529-8.1887z" stroke-dashoffset="0" stroke="#000" stroke-linecap="square" stroke-miterlimit="4" stroke-dasharray="none" stroke-width="1" fill="#FFF"/>
   <text style="text-anchor:middle;text-align:center;" font-weight="normal" xml:space="preserve" font-size="10px" font-style="normal" font-stretch="normal" font-variant="normal" y="504.82077" x="192.7916" font-family="Liberation Sans" fill="#000000"><tspan y="504.82077" x="192.7916" style="text-anchor:middle;text-align:center;" font-size="11px">git commit on A</tspan></text>
  </g>
  <g transform="translate(-0.94654251,-11.575984)">
   <g stroke-linejoin="round" transform="translate(1.1543825,-103.65768)" stroke-dashoffset="0" stroke="#000" stroke-miterlimit="4" stroke-dasharray="none" fill="#FFF">
    <path d="m233.99,495.75,0,20.36-81.965,0,0-28.265,73.474,0.00001" stroke-width="0.99999994"/>
    <path d="m224.79,487.84,9.196,8.1558-9.7113,0.0329,0.51529-8.1887z" stroke-linecap="square" stroke-width="1"/>
   </g>
   <text style="text-anchor:middle;text-align:center;" font-weight="normal" xml:space="preserve" font-size="10px" font-style="normal" font-stretch="normal" font-variant="normal" y="401.16306" x="194.22528" font-family="Liberation Sans" fill="#000000"><tspan y="401.16306" x="194.22528" style="text-anchor:middle;text-align:center;" font-size="11px">git merge on B</tspan></text>
  </g>
  <g transform="translate(-123.54674,-6.8403587)">
   <g transform="translate(122.6002,-62.35246)">
    <g stroke-linejoin="round" transform="translate(1.1543825,-103.65768)" stroke-dashoffset="0" stroke="#000" stroke-miterlimit="4" stroke-dasharray="none" fill="#FFF">
     <path d="m233.99,495.75,0,20.36-81.965,0,0-28.265,73.474,0.00001" stroke-width="0.99999994"/>
     <path d="m224.79,487.84,9.196,8.1558-9.7113,0.0329,0.51529-8.1887z" stroke-linecap="square" stroke-width="1"/>
    </g>
    <text style="text-anchor:middle;text-align:center;" font-weight="normal" xml:space="preserve" font-size="10px" font-style="normal" font-stretch="normal" font-variant="normal" y="401.16306" x="194.22528" font-family="Liberation Sans" fill="#000000"><tspan y="401.16306" x="194.22528" style="text-anchor:middle;text-align:center;" font-size="11px">git commit on B</tspan></text>
   </g>
  </g>
  <g transform="translate(0.20783999,-404.10709)">
   <path stroke-linejoin="round" d="m233.99,495.75,0,20.36-81.965,0,0-28.265,73.474,0.00001" stroke-dashoffset="0" stroke="#000" stroke-miterlimit="4" stroke-dasharray="none" stroke-width="0.99999994" fill="#FFF"/>
   <path stroke-linejoin="round" d="m224.79,487.84,9.196,8.1558-9.7113,0.0329,0.51529-8.1887z" stroke-dashoffset="0" stroke="#000" stroke-linecap="square" stroke-miterlimit="4" stroke-dasharray="none" stroke-width="1" fill="#FFF"/>
   <text style="text-anchor:middle;text-align:center;" font-weight="normal" xml:space="preserve" font-size="10px" font-style="normal" font-stretch="normal" font-variant="normal" y="504.82077" x="192.7916" font-family="Liberation Sans" fill="#000000"><tspan y="504.82077" x="192.7916" style="text-anchor:middle;text-align:center;" font-size="11px">git commit on A</tspan></text>
  </g>
  <g transform="translate(67.70784,-345.1748)">
   <path stroke-linejoin="round" d="m233.99,495.75,0,20.36-81.965,0,0-28.265,73.474,0.00001" stroke-dashoffset="0" stroke="#000" stroke-miterlimit="4" stroke-dasharray="none" stroke-width="0.99999994" fill="#FFF"/>
   <path stroke-linejoin="round" d="m224.79,487.84,9.196,8.1558-9.7113,0.0329,0.51529-8.1887z" stroke-dashoffset="0" stroke="#000" stroke-linecap="square" stroke-miterlimit="4" stroke-dasharray="none" stroke-width="1" fill="#FFF"/>
   <text style="text-anchor:middle;text-align:center;" font-weight="normal" xml:space="preserve" font-size="10px" font-style="normal" font-stretch="normal" font-variant="normal" y="504.82077" x="192.7916" font-family="Liberation Sans" fill="#000000"><tspan y="504.82077" x="192.7916" style="text-anchor:middle;text-align:center;" font-size="11px">git commit on A</tspan></text>
  </g>
  <g transform="translate(65.501094,-252.04074)">
   <g stroke-linejoin="round" transform="translate(2.2067457,-36.832686)" stroke-dashoffset="0" stroke="#000" stroke-miterlimit="4" stroke-dasharray="none" fill="#FFF">
    <path d="m233.99,495.75,0,20.36-81.965,0,0-28.265,73.474,0.00001" stroke-width="0.99999994"/>
    <path d="m224.79,487.84,9.196,8.1558-9.7113,0.0329,0.51529-8.1887z" stroke-linecap="square" stroke-width="1"/>
   </g>
   <text style="text-anchor:middle;text-align:center;" font-weight="normal" xml:space="preserve" font-size="10px" font-style="normal" font-stretch="normal" font-variant="normal" y="467.98807" x="194.99834" font-family="Liberation Sans" fill="#000000"><tspan y="467.98807" x="194.99834" style="text-anchor:middle;text-align:center;" font-size="11px">git merge on A</tspan></text>
  </g>
  <g transform="translate(3.4175475,-64.457188)">
   <g transform="translate(122.6002,-62.35246)">
    <g stroke-linejoin="round" transform="translate(1.1543825,-103.65768)" stroke-dashoffset="0" stroke="#000" stroke-miterlimit="4" stroke-dasharray="none" fill="#FFF">
     <path d="m233.99,495.75,0,20.36-81.965,0,0-28.265,73.474,0.00001" stroke-width="0.99999994"/>
     <path d="m224.79,487.84,9.196,8.1558-9.7113,0.0329,0.51529-8.1887z" stroke-linecap="square" stroke-width="1"/>
    </g>
    <text style="text-anchor:middle;text-align:center;" font-weight="normal" xml:space="preserve" font-size="10px" font-style="normal" font-stretch="normal" font-variant="normal" y="401.16306" x="194.22528" font-family="Liberation Sans" fill="#000000"><tspan y="401.16306" x="194.22528" style="text-anchor:middle;text-align:center;" font-size="11px">git commit on B</tspan></text>
   </g>
  </g>
  <path stroke-linejoin="miter" style="marker-end:url(#TriangleOutL-5);" d="m193.28,132.6,214.85,0" stroke="#000" stroke-linecap="butt" stroke-miterlimit="4" stroke-dasharray="none" stroke-width="1.49999988" fill="none"/>
  <path stroke-linejoin="miter" style="marker-end:url(#TriangleOutL);" d="m261.12,248.88,148.35,0" stroke="#000" stroke-linecap="butt" stroke-miterlimit="4" stroke-dasharray="none" stroke-width="1.49999988" fill="none"/>
  <path stroke-linejoin="miter" style="marker-end:url(#TriangleOutL);" d="m320.68,306.5,227.07,0" stroke="#000" stroke-linecap="butt" stroke-miterlimit="4" stroke-dasharray="none" stroke-width="1.5" fill="none"/>
  <path stroke-linejoin="miter" style="marker-end:url(#TriangleOutL);" d="m192.79,422.52,356.43,0" stroke="#000" stroke-linecap="butt" stroke-miterlimit="4" stroke-dasharray="none" stroke-width="1.49999988" fill="none"/>
  <path stroke-linejoin="miter" style="marker-end:url(#TriangleOutL);" d="m193.56,537.65,214.85,0" stroke="#000" stroke-linecap="butt" stroke-miterlimit="4" stroke-dasharray="none" stroke-width="1.49999988" fill="none"/>
  <path stroke-linejoin="miter" style="marker-end:url(#TriangleOutL);" d="m416.67,443.41-215.56,0" stroke="#000" stroke-linecap="butt" stroke-miterlimit="4" stroke-dasharray="none" stroke-width="1.49999976" fill="none"/>
  <path stroke-linejoin="miter" style="marker-end:url(#TriangleOutL);" d="m557.69,364.6-352.66,0" stroke="#000" stroke-linecap="butt" stroke-miterlimit="4" stroke-dasharray="none" stroke-width="1.49999976" fill="none"/>
  <rect height="12.628" width="121.55" y="119.23" x="245" fill="#FFF"/>
  <text style="text-anchor:middle;text-align:center;" font-weight="normal" xml:space="preserve" font-size="10px" font-style="normal" font-stretch="normal" font-variant="normal" y="129.57947" x="304.23712" font-family="Liberation Sans" fill="#000000"><tspan style="text-anchor:middle;text-align:center;" font-size="11px" y="129.57947" x="304.23712" fill="#000000">git push origin featureA</tspan></text>
  <g transform="translate(-16,13.170516)">
   <rect height="12.628" width="72.613" y="162.72" x="319.39" fill="#FFF"/>
   <text style="text-anchor:middle;text-align:center;" font-weight="normal" xml:space="preserve" font-size="10px" font-style="normal" font-stretch="normal" font-variant="normal" y="173.06358" x="354.16812" font-family="Liberation Sans" fill="#000000"><tspan style="text-anchor:middle;text-align:center;" font-size="11px" y="173.06358" x="354.16812" fill="#000000">git fetch origin</tspan></text>
  </g>
  <path stroke-linejoin="miter" style="marker-end:url(#TriangleOutL-3);" d="m416.84,191.27-148.02,0" stroke="#000" stroke-linecap="butt" stroke-miterlimit="4" stroke-dasharray="none" stroke-width="1.5" fill="none"/>
  <g transform="translate(35.377466,116.15788)">
   <rect height="12.628" width="121.55" y="119.23" x="245" fill="#FFF"/>
   <text style="text-anchor:middle;text-align:center;" font-weight="normal" xml:space="preserve" font-size="10px" font-style="normal" font-stretch="normal" font-variant="normal" y="129.57947" x="304.23712" font-family="Liberation Sans" fill="#000000"><tspan style="text-anchor:middle;text-align:center;" font-size="11px" y="129.57947" x="304.23712" fill="#000000">git push origin featureA</tspan></text>
  </g>
  <g transform="translate(36.832676,15.445284)">
   <g transform="translate(99.4062,158.12537)">
    <rect height="12.628" width="121.55" y="119.23" x="245" fill="#FFF"/>
    <text style="text-anchor:middle;text-align:center;" font-weight="normal" xml:space="preserve" font-size="10px" font-style="normal" font-stretch="normal" font-variant="normal" y="129.57947" x="304.23712" font-family="Liberation Sans" fill="#000000"><tspan style="text-anchor:middle;text-align:center;" font-size="11px" y="129.57947" x="304.23712" fill="#000000">git push origin featureBee</tspan></text>
   </g>
  </g>
  <g transform="translate(16.57472,188.24483)">
   <rect height="12.628" width="72.613" y="162.72" x="319.39" fill="#FFF"/>
   <text style="text-anchor:middle;text-align:center;" font-weight="normal" xml:space="preserve" font-size="10px" font-style="normal" font-stretch="normal" font-variant="normal" y="173.06358" x="354.16812" font-family="Liberation Sans" fill="#000000"><tspan style="text-anchor:middle;text-align:center;" font-size="11px" y="173.06358" x="354.16812" fill="#000000">git fetch origin</tspan></text>
  </g>
  <g transform="translate(-50.052961,267.23776)">
   <rect height="12.628" width="72.613" y="162.72" x="319.39" fill="#FFF"/>
   <text style="text-anchor:middle;text-align:center;" font-weight="normal" xml:space="preserve" font-size="10px" font-style="normal" font-stretch="normal" font-variant="normal" y="173.06358" x="354.16812" font-family="Liberation Sans" fill="#000000"><tspan style="text-anchor:middle;text-align:center;" font-size="11px" y="173.06358" x="354.16812" fill="#000000">git fetch origin</tspan></text>
  </g>
  <g transform="translate(3.489023,404.84253)">
   <rect height="12.628" width="121.55" y="119.23" x="245" fill="#FFF"/>
   <text style="text-anchor:middle;text-align:center;" font-weight="normal" xml:space="preserve" font-size="10px" font-style="normal" font-stretch="normal" font-variant="normal" y="129.57947" x="304.23712" font-family="Liberation Sans" fill="#000000"><tspan style="text-anchor:middle;text-align:center;" font-size="11px" y="129.57947" x="304.23712" fill="#000000">git push origin featureA</tspan></text>
  </g>
  <g transform="translate(-25.343611,131.4835)">
   <g transform="translate(99.4062,158.12537)">
    <rect height="12.628" width="121.55" y="119.23" x="245" fill="#FFF"/>
    <text style="text-anchor:middle;text-align:center;" font-weight="normal" xml:space="preserve" font-size="10px" font-style="normal" font-stretch="normal" font-variant="normal" y="129.57947" x="304.23712" font-family="Liberation Sans" fill="#000000"><tspan style="text-anchor:middle;text-align:center;" font-size="11px" y="129.57947" x="304.23712" fill="#000000">git push origin featureB;featureBee</tspan></text>
   </g>
  </g>
 </g>
</svg>
