<!-- Created with Inkscape (http://www.inkscape.org/) -->
<svg xmlns:rdf="http://www.w3.org/1999/02/22-rdf-syntax-ns#" xmlns="http://www.w3.org/2000/svg" height="207.47" width="516.33" version="1.1" xmlns:cc="http://creativecommons.org/ns#" xmlns:dc="http://purl.org/dc/elements/1.1/">
 <metadata>
  <rdf:RDF>
   <cc:Work rdf:about="">
    <dc:format>image/svg+xml</dc:format>
    <dc:type rdf:resource="http://purl.org/dc/dcmitype/StillImage"/>
    <dc:title/>
   </cc:Work>
  </rdf:RDF>
 </metadata>
 <defs>
  <marker id="Arrow1Lstart" refY="0" refX="0" orient="auto">
   <path style="marker-start:none;" d="M10,0,10-2,0,0,10,2z" fill-rule="evenodd" stroke="#000" stroke-width="1px"/>
  </marker>
 </defs>
 <g transform="translate(-1.2479999,-1.5)">
  <rect rx="8.4581" ry="28.735" height="57.47" width="106.08" stroke="#616161" y="3" x="287" stroke-width="3px" fill="#d3f5d6"/>
  <text font-family="&apos;LucidaGrande" font-size="12px" stroke="#000000" y="3" x="287" stroke-width="0px" fill="#000000">
   <tspan style="text-anchor:middle;text-align:center;" y="31.7348" x="340.03949">developer</tspan>
   <tspan style="text-anchor:middle;text-align:center;" y="43.734798" x="340.03949">public</tspan>
  </text>
  <rect rx="8.4581" ry="28.735" height="57.47" width="106.08" stroke="#616161" y="3" x="164" stroke-width="3px" fill="#d3f5d6"/>
  <text font-family="&apos;LucidaGrande" font-size="12px" stroke="#000000" y="3" x="164" stroke-width="0px" fill="#000000">
   <tspan style="text-anchor:middle;text-align:center;" y="31.7348" x="217.03951">developer</tspan>
   <tspan style="text-anchor:middle;text-align:center;" y="43.734798" x="217.03951">public</tspan>
  </text>
  <rect rx="8.4581" ry="28.735" height="57.47" width="106.08" stroke="#616161" y="150" x="18.874" stroke-width="3px" fill="#ffada5"/>
  <text font-family="&apos;LucidaGrande" font-size="12px" stroke="#000000" y="144" x="18.8242" stroke-width="0px" fill="#000000">
   <tspan style="text-anchor:middle;text-align:center;" y="178.7348" x="71.863693">integration</tspan>
   <tspan style="text-anchor:middle;text-align:center;" y="190.7348" x="71.374435">manager</tspan>
  </text>
  <rect rx="8.4581" ry="28.735" height="57.47" width="106.08" stroke="#616161" y="3" x="410" stroke-width="3px" fill="#d3f5d6"/>
  <text font-family="&apos;LucidaGrande" font-size="12px" stroke="#000000" y="3" x="410.00101" stroke-width="0px" fill="#000000">
   <tspan style="text-anchor:middle;text-align:center;" y="31.7348" x="463.0405">developer</tspan>
   <tspan style="text-anchor:middle;text-align:center;" y="43.734798" x="463.0405">public</tspan>
  </text>
  <rect rx="13.098" ry="40.5" height="81" width="138.33" stroke="#616161" y="3" x="2.748" stroke-width="3px" fill="#8ab5eb"/>
  <text font-family="&apos;LucidaGrande" font-size="12px" stroke="#000000" y="3" x="2.7479999" stroke-width="0px" fill="#000000">
   <tspan style="text-anchor:middle;text-align:center;" y="43.5" x="71.913498">blessed</tspan>
   <tspan style="text-anchor:middle;text-align:center;" y="55.5" x="71.913498">repository</tspan>
  </text>
  <path style="marker-start:url(#Arrow1Lstart);marker-end:none;" d="m71.914,85.5,0,63" stroke="#000" stroke-width="2px" fill="none"/>
  <rect rx="8.4581" ry="28.735" height="57.47" width="106.08" stroke="#616161" y="150" x="287" stroke-width="3px" fill="#8ab891"/>
  <text font-family="&apos;LucidaGrande" font-size="12px" stroke="#000000" y="150" x="287" stroke-width="0px" fill="#000000">
   <tspan style="text-anchor:middle;text-align:center;" y="178.7348" x="340.03949">developer</tspan>
   <tspan style="text-anchor:middle;text-align:center;" y="190.7348" x="340.03949">private</tspan>
  </text>
  <rect rx="8.4581" ry="28.735" height="57.47" width="106.08" stroke="#616161" y="150" x="164" stroke-width="3px" fill="#8ab891"/>
  <text font-family="&apos;LucidaGrande" font-size="12px" stroke="#000000" y="150" x="164" stroke-width="0px" fill="#000000">
   <tspan style="text-anchor:middle;text-align:center;" y="178.7348" x="217.03951">developer</tspan>
   <tspan style="text-anchor:middle;text-align:center;" y="190.7348" x="217.03951">private</tspan>
  </text>
  <rect rx="8.4581" ry="28.735" height="57.47" width="106.08" stroke="#616161" y="150" x="410" stroke-width="3px" fill="#8ab891"/>
  <text font-family="&apos;LucidaGrande" font-size="12px" stroke="#000000" y="150" x="410.00101" stroke-width="0px" fill="#000000">
   <tspan style="text-anchor:middle;text-align:center;" y="178.7348" x="463.0405">developer</tspan>
   <tspan style="text-anchor:middle;text-align:center;" y="190.7348" x="463.0405">private</tspan>
  </text>
  <path style="marker-start:url(#Arrow1Lstart);marker-end:none;" fill="none" d="M121.19,157,340.04,60.47" stroke="#808080"/>
  <path style="marker-start:url(#Arrow1Lstart);marker-end:none;" fill="none" d="M108.34,149.05,217.04,60.47" stroke="#808080"/>
  <path style="marker-start:url(#Arrow1Lstart);marker-end:none;" fill="none" d="M123.95,163,463.04,60.47" stroke="#808080"/>
  <path style="marker-start:url(#Arrow1Lstart);marker-end:none;" d="m217.04,60.47,0,88.03" stroke="#000" stroke-width="2px" fill="none"/>
  <path style="marker-start:url(#Arrow1Lstart);marker-end:none;" d="m340.04,60.47,0,88.03" stroke="#000" stroke-width="2px" fill="none"/>
  <path style="marker-start:url(#Arrow1Lstart);marker-end:none;" d="m463.04,60.47,0,88.03" stroke="#000" stroke-width="2px" fill="none"/>
  <path style="marker-start:url(#Arrow1Lstart);marker-end:none;" fill="none" d="M185.11,148.98,116.47,85.023" stroke="#808080"/>
  <path style="marker-start:url(#Arrow1Lstart);marker-end:none;" fill="none" d="M292.33,154.67,134.95,75.292" stroke="#808080"/>
  <path style="marker-start:url(#Arrow1Lstart);marker-end:none;" fill="none" d="M411.77,161.01,138.94,66.674" stroke="#808080"/>
  <path style="marker-end:none;marker-start:url(#Arrow1Lstart);" d="M432.07,148.96,340.04,60.47" stroke="#808080" stroke-dasharray="5, 5" fill="none"/>
 </g>
</svg>
